<svg width="8" height="14" viewBox="0 0 8 14" fill="none" xmlns="http://www.w3.org/2000/svg">
<g id="66a71bb5cdab170aa8f1562e_arrow%20right.svg" clip-path="url(#clip0_1_478)">
<path id="Vector" d="M0.55748 0.644378C0.663004 0.396949 0.93955 0.256615 1.22337 0.31201C1.34709 0.334168 1.70005 0.681309 4.40729 3.4252C7.1109 6.17278 7.45294 6.531 7.47477 6.65656C7.54027 7.0037 7.71493 6.80059 4.40729 10.1612C1.09966 13.5181 1.29615 13.3409 0.954106 13.2744C0.775806 13.2412 0.557481 13.0196 0.524731 12.8386C0.459234 12.4915 0.310044 12.6687 3.3193 9.60725L6.09204 6.7932L3.3375 3.99392C1.79466 2.42809 0.564758 1.15401 0.542925 1.09492C0.491982 0.954589 0.49926 0.781019 0.55748 0.644378Z" fill="white"/>
</g>
<defs>
<clipPath id="clip0_1_478">
<rect width="7" height="13" fill="white" transform="translate(0.5 0.299988)"/>
</clipPath>
</defs>
</svg>
