<svg width="8" height="14" viewBox="0 0 8 14" fill="none" xmlns="http://www.w3.org/2000/svg">
<g id="66a71bb5cdab170aa8f1562d_arrow%20left.svg" clip-path="url(#clip0_1_473)">
<path id="Vector" d="M7.44252 0.644378C7.337 0.396949 7.06045 0.256615 6.77663 0.31201C6.65291 0.334168 6.29995 0.681309 3.59271 3.4252C0.889102 6.17278 0.547058 6.531 0.525225 6.65656C0.459728 7.0037 0.285067 6.80059 3.59271 10.1612C6.90034 13.5181 6.70385 13.3409 7.04589 13.2744C7.22419 13.2412 7.44252 13.0196 7.47527 12.8386C7.54077 12.4915 7.68996 12.6687 4.6807 9.60725L1.90796 6.7932L4.6625 3.99392C6.20534 2.42809 7.43524 1.15401 7.45708 1.09492C7.50802 0.954589 7.50074 0.781019 7.44252 0.644378Z" fill="white"/>
</g>
<defs>
<clipPath id="clip0_1_473">
<rect width="7" height="13" fill="white" transform="translate(0.5 0.299988)"/>
</clipPath>
</defs>
</svg>
