<svg width="25" height="25" viewBox="0 0 25 25" fill="none" xmlns="http://www.w3.org/2000/svg">
<g id="bxs:phone-call" clip-path="url(#clip0_1_500)">
<path id="Vector" d="M19.0138 14.5754H21.0138C21.0138 9.44542 17.1408 5.57642 12.0038 5.57642V7.57642C16.0658 7.57642 19.0138 10.5194 19.0138 14.5754Z" fill="#131313"/>
<path id="Vector_2" d="M12.0138 11.5767C14.1168 11.5767 15.0138 12.4737 15.0138 14.5767H17.0138C17.0138 11.3517 15.2388 9.57665 12.0138 9.57665V11.5767ZM15.4358 17.0197C15.2437 16.845 14.9912 16.7519 14.7316 16.7599C14.4721 16.7679 14.2258 16.8765 14.0448 17.0627L11.6518 19.5237C11.0758 19.4137 9.91783 19.0527 8.72583 17.8637C7.53383 16.6707 7.17283 15.5097 7.06583 14.9377L9.52483 12.5437C9.71124 12.3628 9.81997 12.1165 9.82799 11.8569C9.83602 11.5972 9.74272 11.3447 9.56783 11.1527L5.87283 7.08966C5.69787 6.89701 5.45471 6.78016 5.19498 6.76391C4.93526 6.74767 4.67943 6.83331 4.48183 7.00266L2.31183 8.86366C2.13894 9.03717 2.03575 9.26811 2.02183 9.51265C2.00683 9.76265 1.72083 15.6847 6.31283 20.2787C10.3188 24.2837 15.3368 24.5767 16.7188 24.5767C16.9208 24.5767 17.0448 24.5707 17.0778 24.5687C17.3223 24.555 17.5532 24.4513 17.7258 24.2777L19.5858 22.1067C19.7553 21.9092 19.8411 21.6534 19.8251 21.3937C19.809 21.134 19.6923 20.8907 19.4998 20.7157L15.4358 17.0197V17.0197Z" fill="#131313"/>
</g>
<defs>
<clipPath id="clip0_1_500">
<rect width="24" height="24" fill="white" transform="translate(0.0135498 0.53833)"/>
</clipPath>
</defs>
</svg>
