<svg width="25" height="25" viewBox="0 0 25 25" fill="none" xmlns="http://www.w3.org/2000/svg">
<g id="carbon:location-filled" clip-path="url(#clip0_1_509)">
<path id="Vector" d="M12.2636 4.57642C10.0763 4.579 7.97939 5.44902 6.43278 6.99564C4.88616 8.54225 4.01614 10.6392 4.01356 12.8264C4.01094 14.6138 4.59479 16.3528 5.67556 17.7764C5.67556 17.7764 5.90056 18.0727 5.93731 18.1154L12.2636 25.5764L18.5928 18.1117C18.6258 18.0719 18.8516 17.7764 18.8516 17.7764L18.8523 17.7742C19.9325 16.3511 20.5161 14.613 20.5136 12.8264C20.511 10.6392 19.641 8.54225 18.0943 6.99564C16.5477 5.44902 14.4508 4.579 12.2636 4.57642V4.57642ZM12.2636 15.8264C11.6702 15.8264 11.0902 15.6505 10.5968 15.3208C10.1035 14.9912 9.71898 14.5226 9.49192 13.9745C9.26486 13.4263 9.20545 12.8231 9.3212 12.2411C9.43696 11.6592 9.72268 11.1247 10.1422 10.7051C10.5618 10.2855 11.0963 9.99982 11.6783 9.88406C12.2602 9.7683 12.8634 9.82771 13.4116 10.0548C13.9598 10.2818 14.4283 10.6664 14.758 11.1597C15.0876 11.6531 15.2636 12.2331 15.2636 12.8264C15.2626 13.6218 14.9462 14.3842 14.3838 14.9466C13.8214 15.509 13.0589 15.8254 12.2636 15.8264V15.8264Z" fill="#131313"/>
</g>
<defs>
<clipPath id="clip0_1_509">
<rect width="24" height="24" fill="white" transform="translate(0.0135498 0.53833)"/>
</clipPath>
</defs>
</svg>
