<svg width="33" height="33" viewBox="0 0 33 33" fill="none" xmlns="http://www.w3.org/2000/svg">
<g id="socials-icon/dark/default/Linkedin">
<path id="Subtract" fill-rule="evenodd" clip-rule="evenodd" d="M4.93511 5.57617C3.87419 5.57617 3.01355 6.41061 3.01355 7.43862V29.7143C3.01355 30.7424 3.87429 31.5762 4.93511 31.5762H27.092C28.1533 31.5762 29.0135 30.7423 29.0135 29.714V7.43862C29.0135 6.41061 28.1533 5.57617 27.092 5.57617H4.93511ZM10.9145 15.6295V27.3348H7.02383V15.6295H10.9145ZM11.1709 12.0095C11.1709 13.1328 10.3264 14.0316 8.96997 14.0316L8.94448 14.0315C7.63869 14.0315 6.79451 13.1327 6.79451 12.0094C6.79451 10.8607 7.66418 9.98692 8.99577 9.98692C10.3264 9.98692 11.1455 10.8607 11.1709 12.0095ZM16.9584 27.3348H13.068C13.068 27.3348 13.119 16.728 13.0682 15.6299H16.9587V17.2868C17.4758 16.4894 18.4014 15.3551 20.4651 15.3551C23.0248 15.3551 24.9439 17.0281 24.9439 20.6234V27.3348H21.0537V21.0735C21.0537 19.4998 20.4903 18.4265 19.0829 18.4265C18.0078 18.4265 17.3677 19.1503 17.0865 19.8496C16.9838 20.0991 16.9584 20.4494 16.9584 20.7988V27.3348Z" fill="#131313"/>
</g>
</svg>
