<svg width="17" height="17" viewBox="0 0 17 17" fill="none" xmlns="http://www.w3.org/2000/svg">
<g id="oui:arrow-down">
<path id="Vector" d="M13.6225 8.5332L8.93752 13.1442C8.8353 13.2453 8.69731 13.3021 8.55352 13.3021C8.40973 13.3021 8.27174 13.2453 8.16952 13.1442L3.48352 8.5342C3.38066 8.43312 3.24222 8.37649 3.09802 8.37649C2.95381 8.37649 2.81537 8.43312 2.71252 8.5342C2.66187 8.58358 2.62162 8.64259 2.59413 8.70777C2.56665 8.77295 2.55249 8.84297 2.55249 8.9137C2.55249 8.98444 2.56665 9.05445 2.59413 9.11963C2.62162 9.18481 2.66187 9.24382 2.71252 9.2932L7.39652 13.9032C7.70504 14.2061 8.12014 14.3758 8.55252 14.3758C8.98489 14.3758 9.4 14.2061 9.70852 13.9032L14.3925 9.2932C14.4433 9.24381 14.4837 9.18473 14.5113 9.11946C14.5389 9.05419 14.5531 8.98406 14.5531 8.9132C14.5531 8.84235 14.5389 8.77221 14.5113 8.70694C14.4837 8.64167 14.4433 8.58259 14.3925 8.5332C14.2897 8.43213 14.1512 8.37549 14.007 8.37549C13.8628 8.37549 13.7244 8.43213 13.6215 8.5332" fill="#131313"/>
</g>
</svg>
