<svg width="33" height="33" viewBox="0 0 33 33" fill="none" xmlns="http://www.w3.org/2000/svg">
<g id="socials-icon/dark/default/Twitter">
<path id="Subtract" d="M28.8979 10.1508C28.0569 10.5128 27.1727 10.7648 26.2672 10.9007C26.6905 10.8281 27.3134 10.0661 27.5614 9.75772C27.9381 9.29248 28.2252 8.76138 28.4081 8.19139C28.4081 8.14906 28.4504 8.08858 28.4081 8.05835C28.3867 8.0467 28.3628 8.0406 28.3385 8.0406C28.3142 8.0406 28.2903 8.0467 28.269 8.05835C27.2857 8.59079 26.2393 8.99717 25.1545 9.26786C25.1166 9.27941 25.0764 9.28045 25.0381 9.27086C24.9997 9.26127 24.9647 9.24142 24.9367 9.21344C24.8523 9.11288 24.7614 9.01794 24.6646 8.9292C24.2221 8.53275 23.7201 8.20827 23.1769 7.96763C22.4437 7.66681 21.6516 7.53653 20.8607 7.58664C20.0932 7.63511 19.3439 7.84096 18.6594 8.19139C17.9853 8.56085 17.3928 9.06278 16.9177 9.667C16.4178 10.2889 16.0569 11.0106 15.8593 11.7837C15.6964 12.519 15.6779 13.2789 15.8049 14.0213C15.8049 14.1483 15.8049 14.1664 15.696 14.1483C11.3841 13.5133 7.84628 11.9832 4.95553 8.69939C4.82853 8.55425 4.76201 8.55425 4.6592 8.69939C3.40131 10.6104 4.01211 13.6342 5.58448 15.128C5.79615 15.3275 6.01386 15.5211 6.24367 15.7025C5.52275 15.6513 4.81943 15.4559 4.1754 15.128C4.05444 15.0494 3.98792 15.0917 3.98187 15.2368C3.96473 15.4381 3.96473 15.6404 3.98187 15.8416C4.10806 16.8059 4.4881 17.7195 5.08314 18.4888C5.67817 19.2581 6.46685 19.8555 7.36852 20.22C7.58832 20.3142 7.81736 20.3851 8.0519 20.4317C7.3845 20.5631 6.7 20.5835 6.02596 20.4922C5.88081 20.4619 5.82639 20.5406 5.88081 20.6797C6.76981 23.0987 8.69899 23.8365 10.1141 24.2477C10.3076 24.278 10.5012 24.278 10.7189 24.3263C10.7189 24.3263 10.7189 24.3263 10.6826 24.3626C10.2653 25.1246 8.57804 25.6387 7.80395 25.9048C6.39103 26.4123 4.8846 26.6063 3.38921 26.4732C3.15335 26.437 3.09893 26.443 3.03845 26.4732C2.97797 26.5035 3.03845 26.57 3.10497 26.6305C3.40735 26.83 3.70973 27.0054 4.02421 27.1748C4.9604 27.6854 5.95014 28.091 6.97543 28.3843C12.2852 29.8478 18.2602 28.7713 22.2456 24.8102C25.3782 21.7017 26.4789 17.414 26.4789 13.1202C26.4789 12.9569 26.6785 12.8601 26.7934 12.7755C27.5859 12.1579 28.2846 11.4287 28.8677 10.6104C28.9687 10.4885 29.0204 10.3332 29.0128 10.175C29.0128 10.0843 29.0128 10.1024 28.8979 10.1508Z" fill="#131313"/>
</g>
</svg>
